# xmcd
#
# Track frame offsets:
#	182
#	18300
#	46762
#
# Disc length: 976 seconds
#
# Revision: 1
# Processed by: cddbd v1.5.2PL0 Copyright (c) Steve Scherf et al.
# Submitted via: EasyCDDAExtractor 12.0.7.1
#
DISCID=1703ce03
DTITLE=Kylie Minogue - Je Ne Sais Pas Pourquoi
DYEAR=1988
DGENRE=Pop
TTITLE0=Je Ne Sais Pas Pourquoi (Version 45 T)
TTITLE1=Made In Heaven (Made In England Mix)
TTITLE2=Je Ne Sais Pas Pourquoi (Moi Non Plus Mix)
EXTD=
EXTT0=
EXTT1=
EXTT2=
PLAYORDER=
